<svg width="140" height="140" viewBox="0 0 140 140" fill="none" xmlns="http://www.w3.org/2000/svg">
<circle cx="70" cy="70" r="70" fill="#EFEFEF"/>
<circle cx="54" cy="64" r="37" fill="#F7D051"/>
<path d="M110.365 64.6305C105.569 58.6346 90.9537 51.356 82.2295 49.6004C77.068 48.5155 71.6596 48.7422 66.5082 48.791C65.043 48.8547 63.5778 48.9184 62.1332 48.8727L60.7759 48.9568C58.5344 48.9875 56.1849 48.9979 54.0257 48.5914C48.6483 47.4658 43.9186 46.4622 39.5284 44.8434C37.9707 44.2106 36.5055 44.2743 35.1533 44.9252C33.8011 45.576 32.6288 47.053 32.0219 49.0891C31.7081 50.1618 31.4406 51.5827 31.2811 53.024C30.4842 53.1004 29.492 53.0267 29.0395 53.0547C28.3918 52.9328 27.8571 53.398 27.8415 54.0741C27.8466 54.641 28.1961 55.1595 28.7359 55.2611L28.8439 55.2815C29.2963 55.2535 30.2885 55.3271 31.1934 55.2711C31.1984 55.8379 31.2241 56.2955 31.3577 56.7733C31.4913 57.2512 31.517 57.7087 31.7585 58.2069C30.8588 58.8298 29.6145 59.5009 29.3369 59.7882C28.9307 60.1644 28.9152 60.8406 29.2647 61.3591C29.46 61.5091 29.6554 61.659 29.8713 61.6997C30.1952 61.7606 30.5396 61.7123 30.8173 61.425C30.9664 61.2268 31.8456 60.7132 32.6168 60.1793C33.2953 61.3257 34.1435 62.1644 35.439 62.4083C35.8708 62.4896 36.3233 62.4616 36.7551 62.5429C36.9093 62.9115 37.0635 63.28 37.3462 63.5596C38.9346 65.2168 42.3994 67.0009 44.2243 68.5894C44.2243 68.5894 44.2243 68.5894 44.3323 68.6097C46.2445 70.3279 48.0283 72.135 49.0512 73.233C48.9227 73.322 48.9227 73.322 48.7941 73.411C47.2722 74.3694 44.7116 77.2827 44.0788 81.2379C43.6106 84.3187 44.587 87.4452 46.8744 90.1394C47.0697 90.2893 47.2651 90.4393 47.481 90.4799C47.8049 90.5409 48.1493 90.4926 48.427 90.2053C48.7046 89.9181 48.8949 89.5012 48.7407 89.1326C48.8025 88.8047 49.0751 87.9506 50.1961 85.5586L50.2373 85.34C50.8081 84.0893 51.6566 82.5514 52.8545 81.5319C53.3893 81.0667 54.0988 80.8608 54.7209 80.5252C55.3224 80.2989 55.9445 79.9633 56.5666 79.6277C56.6746 79.648 56.654 79.7573 56.762 79.7777C63.6198 82.5401 74.0204 81.3292 83.1716 80.2226C88.9863 79.6196 94.369 78.9353 97.9523 79.4967C101.32 80.0175 103.725 81.489 105.278 83.9317C106.83 86.3743 107.051 89.3585 106.696 90.6498C106.464 91.2853 106.099 91.4429 104.464 91.8142C102.593 92.2541 100.033 92.7907 96.9941 95.2744C91.4309 99.8859 90.9003 108.048 90.9465 108.396C90.9722 108.854 91.1264 109.222 91.5376 109.413C91.6456 109.433 91.7535 109.454 91.8615 109.474C92.1854 109.535 92.4219 109.466 92.6789 109.288C92.6789 109.288 98.0107 105.312 102.602 102.894C103.353 102.47 104.211 102.066 104.941 101.75C108.849 99.9961 112.412 98.2902 115.379 90.2473C120.013 78.1043 112.719 67.5637 110.365 64.6305Z" fill="white"/>
<path d="M110.361 64.6489C105.567 58.6434 90.9537 51.3562 82.2295 49.6004C77.0681 48.5153 71.6592 48.7444 66.5075 48.7951C65.0421 48.8594 63.5768 48.9237 62.1321 48.8785L60.7747 48.9632C58.533 48.9947 56.1834 49.006 54.0242 48.5995C48.6468 47.4737 43.9172 46.4699 39.5272 44.8496C37.9697 44.2162 36.5043 44.2805 35.1518 44.9331C33.7993 45.5856 32.6264 47.0658 32.0187 49.106C31.7045 50.1808 31.4365 51.6045 31.2764 53.0486C30.4795 53.1253 29.4872 53.0519 29.0348 53.0801C28.387 52.9582 27.8521 53.4245 27.8363 54.1019C27.8412 54.6698 28.1906 55.1892 28.7304 55.2908L28.8383 55.3111C29.2908 55.2829 30.283 55.3563 31.1879 55.2999C31.1928 55.8678 31.2183 56.3262 31.3517 56.8049C31.4852 57.2836 31.5107 57.742 31.7521 58.2411C30.852 58.8654 29.6075 59.5383 29.3297 59.8262C28.9234 60.2033 28.9076 60.8807 29.257 61.4001C29.4523 61.5503 29.6476 61.7004 29.8635 61.7411C30.1874 61.8021 30.5319 61.7535 30.8097 61.4656C30.9589 61.2669 31.8383 60.7521 32.6098 60.2169C33.2879 61.3652 34.1358 62.2052 35.4313 62.4491C38.7987 62.9697 40.6813 61.2829 40.7019 61.1734C41.1082 60.7963 41.1446 60.0094 40.7746 59.5995C40.4046 59.1897 39.6283 59.1569 39.2219 59.534C39.2219 59.534 38.0235 60.5558 35.7357 60.2384C34.6355 60.1447 33.7985 58.0593 33.46 56.2946C33.1421 54.4204 33.4829 51.4228 34.0287 49.7112C34.5126 48.3281 35.2586 47.3346 36.2254 46.9496C36.9556 46.6335 37.8605 46.577 38.791 46.979C43.2683 48.7291 48.1059 49.7532 53.6118 50.7898C55.9869 51.237 58.4445 51.2461 60.7942 51.2348L62.023 51.2394C63.4883 51.175 64.933 51.2202 66.5063 51.1762C71.5707 50.9957 76.851 50.8558 81.7965 51.9003C89.9809 53.5545 104.183 60.6508 108.628 66.137C110.807 68.8151 117.573 78.5939 113.506 89.5083C110.809 96.7116 107.738 98.1748 104.195 99.7757C103.336 100.181 102.606 100.497 101.727 101.012C98.852 102.625 95.6787 104.636 93.6215 106.063C94.0957 103.544 95.419 99.4842 98.5667 97.015C101.092 94.8823 103.308 94.3924 105.051 94.0401C106.795 93.6879 108.43 93.3154 109.017 91.3847C109.624 89.3445 109.184 85.7463 107.391 82.8005C107.304 82.6707 107.216 82.5408 107.129 82.411C107.299 82.1028 108.297 80.3629 108.39 78.6795C108.494 78.1319 108.036 77.5923 107.389 77.4703C106.72 77.4579 106.206 77.8146 106.19 78.4921C106.174 79.1695 105.793 80.005 105.562 80.6418C104.519 79.6516 103.131 78.7099 101.249 78.0155C101.887 77.0016 102.438 75.8579 102.541 75.3103C102.644 74.7628 102.295 74.2434 101.668 74.0119C101.128 73.9103 100.506 74.2467 100.382 74.9038C100.32 75.2324 99.6409 76.4653 99.0028 77.4792C98.7869 77.4385 98.571 77.3979 98.3551 77.3572C94.5353 76.8649 88.9566 77.4022 83.0128 78.0976C74.5495 79.1124 64.9654 80.143 58.5448 78.027C59.9749 76.3685 60.7985 74.369 60.7378 72.3164C60.7329 71.7485 60.1676 71.1884 59.5866 71.3058C59.0262 71.3137 58.4706 71.8895 58.5834 72.4778C58.5981 74.1815 57.7951 76.0715 56.2109 77.3609C55.5474 77.9163 54.8172 78.2325 54.0869 78.5486C53.2487 78.8444 52.4979 79.27 51.7264 79.8052C50.0343 81.0742 49.1234 82.9438 48.3822 84.5053L48.341 84.7243C47.9601 85.5598 47.5999 86.2858 47.3682 86.9226C46.4487 85.2753 46.0023 83.4902 46.3528 81.6285C46.8427 78.4321 49.0856 76.0194 49.9856 75.3951C52.2588 74.0086 56.6049 70.5177 56.7541 70.319C57.2685 69.9622 57.2842 69.2848 56.9348 68.7654C56.5855 68.2461 55.9171 68.2336 55.4028 68.5904C55.4028 68.5904 53.0265 70.5244 50.8407 72.0407C50.4707 71.6308 48.7955 69.8413 46.9043 68.011C49.0076 66.9328 49.0695 66.6043 49.152 66.1662C49.2757 65.5091 48.9263 64.9897 48.2786 64.8678C47.8467 64.7865 47.4816 64.9446 47.2038 65.2325C46.9467 65.4108 46.0672 65.9257 45.0799 66.4202C43.2554 64.8293 41.3024 63.3276 39.8322 62.824C39.313 62.6129 38.5828 62.929 38.4797 63.4766C38.2686 64.0039 38.5768 64.7423 39.1166 64.8439C40.3709 65.3068 42.3239 66.8085 44.2357 68.5292C44.2357 68.5292 44.2357 68.5292 44.3436 68.5495C46.2554 70.2702 48.0386 72.0801 49.0612 73.1798C48.9326 73.269 48.9326 73.269 48.8041 73.3582C47.2817 74.319 44.7199 77.2387 44.0856 81.2016C43.6163 84.2884 44.5916 87.4204 46.8783 90.1189C47.0736 90.2691 47.2689 90.4192 47.4848 90.4599C47.8087 90.5208 48.1532 90.4723 48.4309 90.1844C48.7087 89.8965 48.8991 89.4788 48.7451 89.1096C48.8069 88.781 49.0798 87.9252 50.2018 85.5283L50.2431 85.3092C50.8143 84.056 51.6634 82.5149 52.8619 81.4931C53.3968 81.0268 54.1064 80.8202 54.7287 80.4838C55.3303 80.2568 55.9526 79.9204 56.5749 79.584C56.6828 79.6043 56.6622 79.7138 56.7702 79.7341C63.6275 82.4993 74.0292 81.2824 83.1814 80.1705C88.9967 79.5643 94.38 78.8768 97.9633 79.438C101.331 79.9586 103.736 81.4321 105.288 83.8787C106.839 86.3254 107.059 89.3151 106.704 90.609C106.472 91.2458 106.107 91.4038 104.472 91.7764C102.6 92.2178 100.039 92.7563 96.9995 95.2458C91.4342 99.868 90.9007 108.046 90.9468 108.395C90.9723 108.853 91.1264 109.222 91.5376 109.413C91.6456 109.433 91.7535 109.454 91.8615 109.474C92.1854 109.535 92.4219 109.466 92.6791 109.288C92.6791 109.288 98.0126 105.302 102.605 102.878C103.356 102.453 104.215 102.047 104.945 101.731C108.853 99.9722 112.417 98.2618 115.388 90.2027C120.005 78.1446 112.715 67.5867 110.361 64.6489Z" fill="black"/>
<path d="M45.311 55.8861C46.126 56.0396 46.9111 55.5032 47.0646 54.6882C47.218 53.8731 46.6817 53.088 45.8667 52.9346C45.0516 52.7811 44.2665 53.3175 44.113 54.1325C43.9596 54.9476 44.4959 55.7327 45.311 55.8861Z" fill="black"/>
</svg>
