<svg width="21" height="21" viewBox="0 0 21 21" fill="none" xmlns="http://www.w3.org/2000/svg">
<path d="M12.3189 15.9145C12.3189 15.9145 11.3023 16 10.2857 16C9.2691 16 8.16777 15.9145 8.16777 15.9145C5.62625 15.5726 3 14.6323 3 10.1872C3 8.90491 3.42359 7.87911 4.18605 7.10976C4.01661 6.85331 3.67774 5.65655 4.27076 4.03237C4.27076 4.03237 5.20266 3.69044 7.40532 5.22914C8.33721 4.97269 9.2691 4.8872 10.2857 4.80172C11.2176 4.80172 12.2342 4.97269 13.1661 5.22914C15.3688 3.77592 16.3007 4.03237 16.3007 4.03237C16.8937 5.65655 16.5548 6.76783 16.3854 7.10976C17.1478 7.87911 17.5714 8.90491 17.5714 10.1872C17.5714 14.6323 14.9452 15.5726 12.3189 15.9145Z" fill="#252525"/>
</svg>
