<svg width="21" height="21" viewBox="0 0 21 21" fill="none" xmlns="http://www.w3.org/2000/svg">
<path d="M6.0002 18.2798H2.4002V6.72645H6.0002V18.2798ZM4.30019 5.21949C3.20019 5.21949 2.20018 4.31531 2.20018 3.10975C2.20018 2.00464 3.10019 1 4.30019 1C5.40019 1 6.4002 1.90418 6.4002 3.10975C6.3002 4.21485 5.40019 5.21949 4.30019 5.21949ZM19.4002 18.2798H15.8002V12.6538C15.8002 11.3478 15.8002 9.63991 13.9002 9.63991C12.0002 9.63991 11.8002 11.1469 11.8002 12.5534V18.2798H8.20018V6.72645H11.6002V8.33388C12.1002 7.4297 13.2002 6.42506 15.0002 6.42506C18.6002 6.42506 19.3002 8.8362 19.3002 11.9506V18.2798H19.4002Z" fill="#252525"/>
</svg>
