<svg width="21" height="21" viewBox="0 0 21 21" fill="none" xmlns="http://www.w3.org/2000/svg">
<path d="M17.3 2H7.1C6.165 2 5.4 2.765 5.4 3.7V13.9C5.4 14.835 6.165 15.6 7.1 15.6H17.3C18.235 15.6 19 14.835 19 13.9V3.7C19 2.765 18.235 2 17.3 2ZM10.075 8.375C10.075 9.0805 9.5055 9.65 8.8 9.65H7.95V11.35H6.675V6.25H8.8C9.5055 6.25 10.075 6.8195 10.075 7.525V8.375ZM14.325 10.075C14.325 10.7805 13.7555 11.35 13.05 11.35H10.925V6.25H13.05C13.7555 6.25 14.325 6.8195 14.325 7.525V10.075ZM17.725 7.525H16.45V8.375H17.725V9.65H16.45V11.35H15.175V6.25H17.725V7.525ZM7.95 8.375H8.8V7.525H7.95V8.375ZM3.7 5.4H2V17.3C2 18.235 2.765 19 3.7 19H15.6V17.3H3.7V5.4ZM12.2 10.075H13.05V7.525H12.2V10.075Z" fill="white"/>
</svg>
