<svg width="21" height="21" viewBox="0 0 21 21" fill="none" xmlns="http://www.w3.org/2000/svg">
<path d="M15.5 14.0161C14.8667 14.0161 14.3 14.2721 13.8667 14.6732L7.925 11.1315C7.96667 10.9352 8 10.739 8 10.5341C8 10.3293 7.96667 10.133 7.925 9.93675L13.8 6.42922C14.25 6.85592 14.8417 7.12048 15.5 7.12048C16.8833 7.12048 18 5.97691 18 4.56024C18 3.14357 16.8833 2 15.5 2C14.1167 2 13 3.14357 13 4.56024C13 4.76506 13.0333 4.96135 13.075 5.15763L7.2 8.66516C6.75 8.23845 6.15833 7.9739 5.5 7.9739C4.11667 7.9739 3 9.11747 3 10.5341C3 11.9508 4.11667 13.0944 5.5 13.0944C6.15833 13.0944 6.75 12.8298 7.2 12.4031L13.1333 15.9533C13.0917 16.1325 13.0667 16.3203 13.0667 16.508C13.0667 17.882 14.1583 19 15.5 19C16.8417 19 17.9333 17.882 17.9333 16.508C17.9333 15.134 16.8417 14.0161 15.5 14.0161Z" fill="white"/>
</svg>
