<svg width="21" height="21" viewBox="0 0 21 21" fill="none" xmlns="http://www.w3.org/2000/svg">
<path d="M17.6002 6.51624C17.6002 6.71717 17.6002 6.81763 17.6002 7.01856C17.6002 11.7404 14.0002 17.065 7.6002 17.065C5.6002 17.065 3.80019 16.4622 2.20019 15.4575C2.50019 15.4575 2.8002 15.4575 3.0002 15.4575C4.7002 15.4575 6.20019 14.8548 7.40019 13.9506C5.90019 13.9506 4.6002 12.9459 4.1002 11.439C4.3002 11.439 4.5002 11.5394 4.8002 11.5394C5.1002 11.5394 5.40019 11.5394 5.70019 11.439C4.10019 11.1376 2.90019 9.63063 2.90019 7.92274C3.40019 8.22413 3.9002 8.32459 4.5002 8.32459C3.6002 7.72181 2.90019 6.61671 2.90019 5.41114C2.90019 4.80835 3.10019 4.1051 3.40019 3.60278C5.10019 5.71253 7.70019 7.11903 10.7002 7.31995C10.6002 7.01856 10.6002 6.81763 10.6002 6.51624C10.6002 4.60742 12.2002 3 14.1002 3C15.1002 3 16.0002 3.40186 16.7002 4.1051C17.5002 3.90418 18.3002 3.60278 18.9002 3.20093C18.6002 4.00464 18.1002 4.70789 17.3002 5.21021C18.0002 5.10974 18.7002 4.90882 19.3002 4.60742C18.9002 5.41114 18.3002 6.01392 17.6002 6.51624Z" fill="#252525"/>
</svg>
